<?xml version="1.0" encoding="UTF-8"?>
<svg width="15px" height="12px" viewBox="0 0 15 12" version="1.1" xmlns="http://www.w3.org/2000/svg" xmlns:xlink="http://www.w3.org/1999/xlink">
    <!-- Generator: Sketch 52.1 (67048) - http://www.bohemiancoding.com/sketch -->
    <title>Group 16</title>
    <desc>Created with Sketch.</desc>
    <g id="Page-1" stroke="none" stroke-width="1" fill="none" fill-rule="evenodd">
        <g id="index" transform="translate(-612.000000, -236.000000)" fill="#FFFFFF">
            <g id="table" transform="translate(229.000000, 207.000000)">
                <g id="table-btn" transform="translate(369.000000, 20.000000)">
                    <g id="Group-16" transform="translate(14.000000, 9.000000)">
                        <path d="M11.3325725,0.092571243 C11.2358986,0.00200176918 11.0908218,-0.0249578629 10.9648687,0.0243646042 C10.8389157,0.0736870712 10.7567494,0.189601123 10.7567494,0.318063171 L10.7567494,2.01515387 C8.93313392,2.08348474 8.01994133,2.79561683 7.8804038,2.91401561 C6.96035302,3.62527799 6.33217045,4.61644855 6.10400417,5.71670003 C5.98992105,6.24831429 5.9694784,6.79396747 6.04373136,7.33179367 L6.04399512,7.33365722 C6.04465455,7.33837828 6.04544589,7.34322353 6.04623724,7.34794459 L6.11798432,7.73643674 C6.1421198,7.86725932 6.25013609,7.97025259 6.3887504,7.99460323 C6.52749659,8.01895387 6.66756164,7.95944388 6.74010006,7.84551766 L6.9550775,7.5079631 C7.61557267,6.4734335 8.43868574,5.78763989 9.4018639,5.46971491 C9.83630303,5.32497768 10.2965922,5.2614921 10.7567494,5.28261254 L10.7567494,7.04033137 C10.7567494,7.16904191 10.8391795,7.28520442 10.9655282,7.3342784 C11.0920088,7.38347667 11.2373494,7.35589582 11.3337595,7.26458091 L14.9017259,3.88655046 C15.0332182,3.76206399 15.0326907,3.56067425 14.9005389,3.436809 L11.3325725,0.092571243 Z M11.432148,6.26955899 L11.432148,4.99649248 C11.432148,4.84044959 11.3118661,4.70739071 11.1481931,4.68254312 C10.8593583,4.63868712 10.0890005,4.56898963 9.17857751,4.86952129 C8.20735419,5.19005526 7.36709565,5.82081144 6.67507928,6.74762671 C6.67310095,6.44311943 6.70369897,6.13910914 6.76647766,5.84031679 C6.97169541,4.86293669 7.49291683,4.04197217 8.31550236,3.40053151 C8.3227562,3.39494081 8.32961438,3.38910161 8.33634064,3.3828897 C8.35994861,3.36226621 9.21748448,2.6329893 11.091745,2.64615854 L11.0942509,2.64615854 C11.2807405,2.64615854 11.4320161,2.50365758 11.432148,2.32798507 L11.432148,1.08324485 L14.1850464,3.66341906 L11.432148,6.26955899 Z" id="Shape" fill-rule="nonzero"></path>
                        <path d="M12.6958008,8.97667167 C12.5278971,8.97667167 12.3916016,9.10901953 12.3916016,9.27231782 L12.3916016,10.5217693 C12.3911263,11.0114332 11.982834,11.4081302 11.479004,11.4087077 L1.52099596,11.4087077 C1.01716605,11.4081302 0.608992516,11.0114332 0.608398385,10.5217693 L0.608398385,3.47823074 C0.608992516,2.98856681 1.01716605,2.59186975 1.52099596,2.5912923 L3.62484232,2.5912923 C3.79286486,2.5912923 3.92904151,2.45894446 3.92904151,2.29564615 C3.92904151,2.13234786 3.79286486,2 3.62484232,2 L1.52099596,2 C0.681358675,2.00092389 0.000950622476,2.66220119 0,3.47823074 L0,10.5217693 C0.000950622476,11.3377988 0.681358675,11.9990761 1.52099596,12 L11.479004,12 C12.3186414,11.9990761 12.9990494,11.3377988 13,10.5217693 L13,9.27231782 C13,9.10901953 12.8638233,8.97667167 12.6958008,8.97667167 Z" id="Path"></path>
                    </g>
                </g>
            </g>
        </g>
    </g>
</svg>